<svg xmlns="http://www.w3.org/2000/svg"  viewBox="0 0 100 100" width="24px" height="24px"><path fill="#1d1d1b" d="M17.5,93c-3.584,0-6.5-2.916-6.5-6.5V36.528C8.653,35.547,7,35.2,7,32.5v-15	c0-3.584,2.916-6.5,6.5-6.5h77c3.584,0,6.5,2.916,6.5,6.5v15c0,2.699-1.653,5.019-4,6v48c0,3.584-2.916,6.5-6.5,6.5H17.5z" opacity=".35"/><path fill="#f2f2f2" d="M15.5,91C11.916,91,9,88.084,9,84.5v-48c-2.347-0.981-4-3.301-4-6v-15C5,11.916,7.916,9,11.5,9h77	c3.584,0,6.5,2.916,6.5,6.5v15c0,2.699-1.653,5.019-4,6v48c0,3.584-2.916,6.5-6.5,6.5H15.5z"/><polygon fill="#ffc571" points="88.5,15.5 79.5,15.5 20.5,15.5 11.5,15.5 11.5,30.5 15.5,30.5 15.5,84.5 84.5,84.5 84.5,30.5 88.5,30.5"/><rect width="69" height="3" x="15.5" y="29" fill="#40396e" opacity=".35"/><path fill="#40396e" d="M60,45H40c-1.657,0-3-1.343-3-3v0c0-1.657,1.343-3,3-3h20c1.657,0,3,1.343,3,3v0	C63,43.657,61.657,45,60,45z"/><path fill="#40396e" d="M84.5,86h-69c-0.828,0-1.5-0.672-1.5-1.5V32h-2.5c-0.828,0-1.5-0.672-1.5-1.5v-15	c0-0.828,0.672-1.5,1.5-1.5h77c0.828,0,1.5,0.672,1.5,1.5v15c0,0.828-0.672,1.5-1.5,1.5H86v52.5C86,85.329,85.328,86,84.5,86z M17,83h66V30.5c0-0.828,0.672-1.5,1.5-1.5H87V17H13v12h2.5c0.828,0,1.5,0.672,1.5,1.5V83z"/></svg>